<svg width="75" height="96" viewBox="0 0 75 96" fill="none" xmlns="http://www.w3.org/2000/svg">
<path d="M63.2976 31.0883C63.0135 31.0646 62.7251 31.0478 62.4289 31.0478H11.0703C10.8781 31.0478 10.689 31.0549 10.502 31.0653L10.0747 26.0736H63.5889L63.2976 31.0883ZM38.9341 61.2219C34.5127 56.0881 34.8147 50.683 37.0291 44.9595C37.558 43.593 38.2846 43.4053 39.6174 43.717C42.5397 44.3993 44.6959 46.0302 46.1054 48.3265C50.4064 55.3323 50.2485 62.3796 45.8154 69.2829C44.3395 71.5808 42.1419 73.2512 38.9031 73.9998C39.4119 72.5812 39.765 71.5161 40.1744 70.4687C41.4522 67.1962 41.2971 63.9658 38.9341 61.2219ZM35.4943 60.5425C38.3723 64.563 38.9985 68.7009 36.6394 73.1182C36.0724 74.1794 35.3526 74.5601 34.0738 74.5141C29.9705 74.3655 27.3502 72.2229 25.7944 69.1307C22.4737 62.5304 22.5251 55.8152 26.0209 49.2712C27.6916 46.1441 30.4146 44.0351 35.0053 43.8908C34.5143 45.468 34.1926 46.7953 33.689 48.064C31.9221 52.5146 32.7099 56.6525 35.4943 60.5425ZM59.8798 90.0318C59.7688 91.9407 57.9686 93.4363 55.7817 93.4363H19.6491C17.5136 93.4363 15.7164 91.9785 15.5568 90.1172L15.0649 84.3658C15.7698 84.5341 16.5401 84.6283 17.3473 84.6283H58.1767C58.8888 84.6283 59.5704 84.5529 60.2051 84.4209L59.8798 90.0318ZM71.5835 8.11651H66.5332V2.69398C66.5332 1.41295 65.4917 0.370789 64.2107 0.370789H9.28859C8.00756 0.370789 6.96539 1.41295 6.96539 2.69398V8.11651H2.62323C1.17681 8.11651 0 9.29363 0 10.7401V23.4503C0 24.8967 1.17681 26.0736 2.62323 26.0736H7.72501L8.18752 31.477C6.22034 32.1036 4.94222 33.3484 5.12865 34.7362L11.4053 81.4672C11.4975 82.153 11.9397 82.7777 12.6229 83.2884L13.2242 90.3169C13.4867 93.3787 16.3087 95.777 19.6491 95.777H55.7817C59.2079 95.777 62.0344 93.3133 62.2166 90.1674L62.6037 83.4936C63.4879 82.9298 64.054 82.1961 64.1284 81.3824L68.38 34.6517C68.4968 33.3671 67.366 32.2217 65.6144 31.5825L65.9335 26.0736H71.5835C73.0299 26.0736 74.2064 24.8967 74.2064 23.4503V10.7401C74.2064 9.29363 73.0299 8.11651 71.5835 8.11651Z" fill="white"/>
</svg>
