<svg width="75" height="96" viewBox="0 0 75 96" fill="none" xmlns="http://www.w3.org/2000/svg">
<path d="M63.2976 30.7175C63.0135 30.6939 62.7251 30.677 62.4289 30.677H11.0703C10.8781 30.677 10.689 30.6841 10.502 30.6945L10.0747 25.7028H63.5889L63.2976 30.7175ZM38.9341 60.8511C34.5127 55.7173 34.8147 50.3122 37.0291 44.5887C37.558 43.2222 38.2846 43.0345 39.6174 43.3462C42.5397 44.0285 44.6959 45.6594 46.1054 47.9557C50.4064 54.9616 50.2485 62.0088 45.8154 68.9121C44.3395 71.21 42.1419 72.8804 38.9031 73.629C39.4119 72.2104 39.765 71.1453 40.1744 70.0979C41.4522 66.8255 41.2971 63.595 38.9341 60.8511ZM35.4943 60.1717C38.3723 64.1922 38.9985 68.3301 36.6394 72.7474C36.0724 73.8087 35.3526 74.1893 34.0738 74.1433C29.9705 73.9948 27.3502 71.8522 25.7944 68.76C22.4737 62.1596 22.5251 55.4444 26.0209 48.9004C27.6916 45.7733 30.4146 43.6644 35.0053 43.52C34.5143 45.0972 34.1926 46.4245 33.689 47.6932C31.9221 52.1438 32.7099 56.2817 35.4943 60.1717ZM59.8798 89.661C59.7688 91.5699 57.9686 93.0655 55.7817 93.0655H19.6491C17.5136 93.0655 15.7164 91.6078 15.5568 89.7464L15.0649 83.995C15.7698 84.1634 16.5401 84.2575 17.3473 84.2575H58.1767C58.8888 84.2575 59.5704 84.1821 60.2051 84.0501L59.8798 89.661ZM71.5835 7.74572H66.5332V2.32319C66.5332 1.04216 65.4917 0 64.2107 0H9.28859C8.00756 0 6.96539 1.04216 6.96539 2.32319V7.74572H2.62323C1.17681 7.74572 0 8.92285 0 10.3693V23.0795C0 24.5259 1.17681 25.7028 2.62323 25.7028H7.72501L8.18752 31.1062C6.22034 31.7328 4.94222 32.9776 5.12865 34.3654L11.4053 81.0964C11.4975 81.7822 11.9397 82.4069 12.6229 82.9176L13.2242 89.9461C13.4867 93.0079 16.3087 95.4062 19.6491 95.4062H55.7817C59.2079 95.4062 62.0344 92.9425 62.2166 89.7966L62.6037 83.1228C63.4879 82.559 64.054 81.8253 64.1284 81.0116L68.38 34.2809C68.4968 32.9963 67.366 31.8509 65.6144 31.2117L65.9335 25.7028H71.5835C73.0299 25.7028 74.2064 24.5259 74.2064 23.0795V10.3693C74.2064 8.92285 73.0299 7.74572 71.5835 7.74572Z" fill="#773300"/>
</svg>
