<svg width="150" height="88" viewBox="0 0 150 88" fill="none" xmlns="http://www.w3.org/2000/svg">
<path d="M76.3258 22.7309C80.1766 21.9024 83.1299 17.1308 83.1299 11.3677C83.1299 5.60427 80.1766 0.832687 76.3258 0.00424318C76.1874 -0.0253919 76.0607 0.104033 76.0607 0.27297V22.4621" fill="#4A3E30"/>
<path d="M74.6557 22.4621V0.27297C74.6557 0.104033 74.529 -0.0253919 74.3907 0.00424318C70.5399 0.832687 67.5867 5.60427 67.5867 11.3677C67.5867 17.1308 70.5399 21.9024 74.3907 22.7309" fill="#4A3E30"/>
<path d="M88.7152 28.0586C92.3911 29.5106 97.3484 27.1356 100.328 22.2749C103.307 17.4141 103.283 11.7406 100.464 8.8914C100.362 8.7891 100.189 8.8276 100.101 8.96992L88.6303 27.6839" fill="#4A3E30"/>
<path d="M87.4457 26.8993L98.9165 8.18546C99.0038 8.04298 98.9638 7.86282 98.8317 7.81059C95.1559 6.3588 90.1986 8.73363 87.2191 13.5945C84.2396 18.4553 84.2636 24.1287 87.0831 26.978" fill="#4A3E30"/>
<path d="M62.3152 28.0586C58.6393 29.5106 53.6818 27.1356 50.7023 22.2749C47.723 17.4141 47.747 11.7406 50.5665 8.8914C50.6677 8.7891 50.8417 8.8276 50.929 8.96992L62.3999 27.6839" fill="#4A3E30"/>
<path d="M63.5847 26.8993L52.1137 8.18546C52.0264 8.04298 52.0665 7.86282 52.1985 7.81059C55.8745 6.3588 60.8319 8.73363 63.8113 13.5945C66.7907 18.4553 66.7667 24.1287 63.9471 26.978" fill="#4A3E30"/>
<path d="M30.4997 52.0338H33.6571L33.8181 45.6715L32.7872 45.2697C32.1106 45.0018 31.1763 44.7339 29.9198 44.466C28.6633 44.2316 27.4712 44.0977 26.3114 44.0977C22.993 44.0977 20.3511 45.2027 18.3859 47.4463C16.4206 49.6898 15.454 52.737 15.454 56.6549C15.454 60.5057 16.3561 63.4525 18.1603 65.4616C19.9323 67.5043 22.4775 68.5089 25.7637 68.5089C26.698 68.5089 27.6646 68.3749 28.5989 68.107C29.5332 67.8391 30.3064 67.5378 30.9185 67.2364C31.5307 66.935 32.1428 66.5667 32.7227 66.1314C33.2704 65.696 33.6571 65.3947 33.8181 65.2272C33.9792 65.0598 34.1081 64.9594 34.2048 64.8589L32.4328 61.8452L31.6273 62.4144C31.0796 62.8163 30.2742 63.2181 29.2754 63.5864C28.2445 63.9883 27.2457 64.1892 26.3114 64.1892C22.6708 64.1892 20.8344 61.6108 20.8344 56.4874C20.8344 51.0293 22.6064 48.2834 26.1503 48.2834C27.5357 48.2834 28.76 48.4508 29.7587 48.8192L30.4997 52.0338ZM39.8106 47.4128C37.9098 49.6228 36.9433 52.6366 36.9433 56.4874C36.9433 60.4053 37.8131 63.419 39.5207 65.4616C41.2282 67.5043 43.709 68.5423 46.9308 68.5423C50.1525 68.5423 52.7622 67.4038 54.7597 65.0933C56.7249 62.7828 57.7237 59.7691 57.7237 55.9852C57.7237 52.2347 56.8538 49.3215 55.0818 47.2119C53.3099 45.1357 50.7969 44.0977 47.5751 44.0977C44.2889 44.0977 41.7115 45.2027 39.8106 47.4128ZM51.0868 50.1586C51.8923 51.4311 52.3111 53.4402 52.3111 56.1526C52.3111 59.0659 51.8601 61.142 50.9902 62.4144C50.0881 63.7204 48.7994 64.3566 47.0918 64.3566C45.481 64.3566 44.2889 63.6869 43.5157 62.381C42.7102 61.075 42.3236 59.0659 42.3236 56.32C42.3236 53.4402 42.7424 51.3641 43.6123 50.1251C44.4822 48.8862 45.7387 48.2834 47.414 48.2834C49.0571 48.2834 50.2814 48.9196 51.0868 50.1586ZM68.3555 64.3566V58.0613H75.0246V54.3778H68.3555V48.4508H73.5748L74.3803 50.8618H77.3765V44.4995H68.3555L60.9455 44.6669V47.4463L63.3618 48.4508V64.3566C62.2986 64.725 61.4932 64.9928 60.9455 65.1938V68.107H71.3196V65.1938C71.0296 65.0933 70.0309 64.8254 68.3555 64.3566Z" fill="#4A3E30"/>
<path d="M87.0407 64.3567V58.0614H93.7098V54.3779H87.0407V48.4509H92.26L93.0654 50.8619H96.0617V44.4995H87.0407L79.6306 44.667V47.4463L82.0469 48.4509V64.3567C80.9838 64.7251 80.1783 64.993 79.6306 65.1939V68.1072H90.0047V65.1939C89.7148 65.0934 88.716 64.8255 87.0407 64.3567ZM111.268 48.4509L112.073 50.9623H115.07V44.4995H106.049L98.6386 44.667V47.4463L101.055 48.4509V64.3567L98.6386 65.1939V68.1072H115.456V61.41H112.492L111.751 64.1893H106.049V57.7265H112.557V54.0431H106.049V48.4509H111.268ZM131.469 48.4509L132.274 50.9623H135.27V44.4995H126.249L118.839 44.667V47.4463L121.256 48.4509V64.3567L118.839 65.1939V68.1072H135.657V61.41H132.693L131.952 64.1893H126.249V57.7265H132.757V54.0431H126.249V48.4509H131.469Z" fill="#4A3E30"/>
<path d="M22.7517 87.8593V86.4061H19.46V84.648H22.1565V83.2065H19.46V81.6711H22.6303V80.2178H17.6745V87.8593H22.7517ZM28.0109 87.8007C28.3876 87.6718 28.7033 87.5077 28.9585 87.2851C29.2135 87.0741 29.4077 86.828 29.5414 86.535C29.675 86.2537 29.7357 85.949 29.7357 85.6325C29.7357 85.0934 29.6022 84.6598 29.3228 84.3316C29.0433 84.0034 28.6546 83.7456 28.1688 83.5581L27.1486 83.1596C26.9785 83.0893 26.8207 83.0189 26.6749 82.9603C26.5291 82.9017 26.4076 82.8431 26.2982 82.7728C26.189 82.7142 26.104 82.6322 26.0432 82.5502C25.9825 82.4681 25.9461 82.3743 25.9461 82.2571C25.9461 82.0345 26.0432 81.8704 26.2254 81.7415C26.4076 81.6243 26.6505 81.5657 26.9542 81.5657C27.2701 81.5657 27.5615 81.6125 27.8167 81.718C28.0717 81.8235 28.3389 81.9759 28.5939 82.1751L29.505 81.0851C29.1648 80.757 28.7761 80.5108 28.3268 80.335C27.8774 80.1592 27.4157 80.0772 26.9542 80.0772C26.5412 80.0772 26.1647 80.1358 25.8246 80.253C25.4723 80.3702 25.1808 80.5343 24.9258 80.7335C24.6708 80.9445 24.4763 81.1906 24.3428 81.4602C24.2091 81.7415 24.1363 82.0345 24.1363 82.3509C24.1363 82.6322 24.1848 82.8783 24.2698 83.101C24.3549 83.3237 24.4763 83.5229 24.6342 83.687C24.78 83.8628 24.9501 84.0034 25.1444 84.1324C25.3266 84.2613 25.521 84.355 25.7275 84.4371L26.7599 84.859C26.9299 84.9293 27.0879 84.9879 27.2335 85.0465C27.3672 85.1051 27.4887 85.1754 27.5979 85.234C27.6952 85.3044 27.768 85.3864 27.8287 85.4685C27.8774 85.5505 27.9017 85.656 27.9017 85.7732C27.9017 85.9959 27.8167 86.1834 27.6345 86.3123C27.4523 86.4412 27.1728 86.5115 26.7963 86.5115C26.4684 86.5115 26.1283 86.4412 25.7882 86.2889C25.4359 86.1365 25.12 85.949 24.8407 85.7146L23.8204 86.8983C24.2213 87.2616 24.6828 87.5429 25.2051 87.7187C25.7153 87.9062 26.2254 88 26.7477 88C27.2214 88 27.6345 87.9297 28.0109 87.8007ZM32.8695 87.8593V85.2692H33.8534C34.2786 85.2692 34.6673 85.2223 35.0437 85.1168C35.4204 85.0114 35.7483 84.859 36.0277 84.648C36.307 84.4371 36.5378 84.1675 36.7078 83.8394C36.8658 83.5112 36.9507 83.1244 36.9507 82.6791C36.9507 82.222 36.8658 81.8235 36.7078 81.5071C36.5378 81.1906 36.307 80.9445 36.0277 80.7453C35.7483 80.5577 35.4081 80.4171 35.0317 80.335C34.655 80.253 34.2422 80.2178 33.8048 80.2178H31.084V87.8593H32.8695ZM32.8695 81.5891H33.6956C34.1814 81.5891 34.5579 81.6711 34.8131 81.8352C35.0681 81.9993 35.2016 82.2806 35.2016 82.6791C35.2016 83.4878 34.7158 83.898 33.7441 83.898H32.8695V81.5891ZM40.1088 87.8593V85.1051H41.0926L42.611 87.8593H44.6151L42.8174 84.8004C43.2425 84.6246 43.5948 84.3433 43.85 83.98C44.105 83.6167 44.2264 83.1596 44.2264 82.597C44.2264 82.1399 44.1414 81.7649 43.9835 81.4602C43.8256 81.1555 43.607 80.9093 43.3275 80.7218C43.0482 80.546 42.7325 80.4171 42.3681 80.335C41.9915 80.253 41.6028 80.2178 41.1777 80.2178H38.3233V87.8593H40.1088ZM40.1088 81.5891H41.0319C41.5056 81.5891 41.8579 81.6594 42.1129 81.8118C42.3559 81.9641 42.4773 82.222 42.4773 82.597C42.4773 82.9721 42.3559 83.2533 42.1129 83.4409C41.8579 83.6401 41.5056 83.7339 41.0319 83.7339H40.1088V81.5891ZM50.846 87.8593V86.4061H47.5543V84.648H50.251V83.2065H47.5543V81.6711H50.7246V80.2178H45.7688V87.8593H50.846ZM56.1052 87.8007C56.4819 87.6718 56.7976 87.5077 57.0528 87.2851C57.3078 87.0741 57.5022 86.828 57.6357 86.535C57.7695 86.2537 57.8302 85.949 57.8302 85.6325C57.8302 85.0934 57.6965 84.6598 57.4171 84.3316C57.1378 84.0034 56.7491 83.7456 56.2633 83.5581L55.2429 83.1596C55.0728 83.0893 54.915 83.0189 54.7692 82.9603C54.6234 82.9017 54.5019 82.8431 54.3927 82.7728C54.2833 82.7142 54.1983 82.6322 54.1376 82.5502C54.0768 82.4681 54.0404 82.3743 54.0404 82.2571C54.0404 82.0345 54.1375 81.8704 54.3197 81.7415C54.5019 81.6243 54.7449 81.5657 55.0485 81.5657C55.3644 81.5657 55.656 81.6125 55.911 81.718C56.166 81.8235 56.4332 81.9759 56.6884 82.1751L57.5993 81.0851C57.2593 80.757 56.8706 80.5108 56.4211 80.335C55.9717 80.1592 55.5102 80.0772 55.0485 80.0772C54.6356 80.0772 54.259 80.1358 53.919 80.253C53.5667 80.3702 53.2752 80.5343 53.0201 80.7335C52.7651 80.9445 52.5706 81.1906 52.4371 81.4602C52.3036 81.7415 52.2306 82.0345 52.2306 82.3509C52.2306 82.6322 52.2792 82.8783 52.3643 83.101C52.4492 83.3237 52.5706 83.5229 52.7287 83.687C52.8743 83.8628 53.0444 84.0034 53.2388 84.1324C53.421 84.2613 53.6153 84.355 53.8218 84.4371L54.8542 84.859C55.0243 84.9293 55.1822 84.9879 55.328 85.0465C55.4615 85.1051 55.583 85.1754 55.6924 85.234C55.7895 85.3044 55.8623 85.3864 55.923 85.4685C55.9717 85.5505 55.996 85.656 55.996 85.7732C55.996 85.9959 55.911 86.1834 55.7288 86.3123C55.5466 86.4412 55.2673 86.5115 54.8906 86.5115C54.5627 86.5115 54.2226 86.4412 53.8825 86.2889C53.5302 86.1365 53.2145 85.949 52.935 85.7146L51.9148 86.8983C52.3156 87.2616 52.7772 87.5429 53.2996 87.7187C53.8096 87.9062 54.3197 88 54.8421 88C55.3158 88 55.7288 87.9297 56.1052 87.8007ZM62.6403 87.8007C63.0167 87.6718 63.3326 87.5077 63.5876 87.2851C63.8428 87.0741 64.0371 86.828 64.1708 86.535C64.3043 86.2537 64.3651 85.949 64.3651 85.6325C64.3651 85.0934 64.2315 84.6598 63.952 84.3316C63.6727 84.0034 63.284 83.7456 62.7981 83.5581L61.7778 83.1596C61.6079 83.0893 61.4498 83.0189 61.3042 82.9603C61.1584 82.9017 61.037 82.8431 60.9276 82.7728C60.8184 82.7142 60.7333 82.6322 60.6726 82.5502C60.6119 82.4681 60.5753 82.3743 60.5753 82.2571C60.5753 82.0345 60.6726 81.8704 60.8548 81.7415C61.037 81.6243 61.2799 81.5657 61.5835 81.5657C61.8993 81.5657 62.1908 81.6125 62.4459 81.718C62.701 81.8235 62.9683 81.9759 63.2233 82.1751L64.1342 81.0851C63.7942 80.757 63.4055 80.5108 62.956 80.335C62.5066 80.1592 62.0451 80.0772 61.5835 80.0772C61.1705 80.0772 60.794 80.1358 60.4538 80.253C60.1017 80.3702 59.8101 80.5343 59.5551 80.7335C59.2999 80.9445 59.1057 81.1906 58.972 81.4602C58.8384 81.7415 58.7656 82.0345 58.7656 82.3509C58.7656 82.6322 58.8141 82.8783 58.8992 83.101C58.9842 83.3237 59.1057 83.5229 59.2635 83.687C59.4093 83.8628 59.5793 84.0034 59.7737 84.1324C59.9559 84.2613 60.1502 84.355 60.3567 84.4371L61.3891 84.859C61.5592 84.9293 61.7171 84.9879 61.8629 85.0465C61.9966 85.1051 62.118 85.1754 62.2272 85.234C62.3244 85.3044 62.3974 85.3864 62.4581 85.4685C62.5066 85.5505 62.5309 85.656 62.5309 85.7732C62.5309 85.9959 62.4458 86.1834 62.2637 86.3123C62.0815 86.4412 61.8021 86.5115 61.4257 86.5115C61.0977 86.5115 60.7575 86.4412 60.4174 86.2889C60.0653 86.1365 59.7494 85.949 59.4701 85.7146L58.4497 86.8983C58.8505 87.2616 59.3122 87.5429 59.8344 87.7187C60.3446 87.9062 60.8548 88 61.377 88C61.8508 88 62.2637 87.9297 62.6403 87.8007ZM70.4017 87.7187C70.839 87.5429 71.2155 87.2733 71.5314 86.9335C71.8471 86.5936 72.0901 86.1716 72.2722 85.6794C72.4424 85.1872 72.5274 84.6246 72.5274 84.0034C72.5274 83.3823 72.4424 82.8314 72.2722 82.3392C72.0901 81.8587 71.8471 81.4485 71.5314 81.1086C71.2155 80.7687 70.839 80.5108 70.4017 80.335C69.9523 80.1592 69.4664 80.0772 68.9319 80.0772C68.3976 80.0772 67.9117 80.1592 67.4744 80.335C67.025 80.5108 66.6485 80.7687 66.3326 81.0969C66.0169 81.4367 65.7739 81.8469 65.6038 82.3275C65.4216 82.8197 65.3366 83.3823 65.3366 84.0034C65.3366 84.6246 65.4216 85.1872 65.6038 85.6794C65.7739 86.1716 66.0169 86.5936 66.3326 86.9335C66.6485 87.2733 67.025 87.5429 67.4744 87.7187C67.9117 87.9062 68.3976 88 68.9319 88C69.4664 88 69.9523 87.9062 70.4017 87.7187ZM67.6445 85.8318C67.3286 85.3864 67.1707 84.777 67.1707 84.0034C67.1707 83.2416 67.3286 82.6439 67.6445 82.2103C67.9602 81.7766 68.3853 81.5657 68.9319 81.5657C69.4786 81.5657 69.9038 81.7766 70.2195 82.2103C70.5354 82.6439 70.6933 83.2416 70.6933 84.0034C70.6933 84.777 70.5354 85.3864 70.2195 85.8318C69.9038 86.2889 69.4786 86.5115 68.9319 86.5115C68.3853 86.5115 67.9602 86.2889 67.6445 85.8318ZM79.5965 87.8593V85.1403L81.9894 80.2178H80.1189L79.4022 81.9759C79.2928 82.2689 79.1836 82.5384 79.0742 82.808C78.9648 83.0776 78.8434 83.3706 78.7341 83.6636H78.6855C78.5763 83.3706 78.4669 83.0776 78.3698 82.808C78.2604 82.5384 78.151 82.2689 78.0418 81.9759L77.3374 80.2178H75.4181L77.811 85.1403V87.8593H79.5965ZM87.2973 87.7187C87.7345 87.5429 88.1111 87.2733 88.4268 86.9335C88.7427 86.5936 88.9857 86.1716 89.1678 85.6794C89.3378 85.1872 89.4229 84.6246 89.4229 84.0034C89.4229 83.3823 89.3378 82.8314 89.1678 82.3392C88.9857 81.8587 88.7427 81.4485 88.4268 81.1086C88.1111 80.7687 87.7345 80.5108 87.2973 80.335C86.8478 80.1592 86.362 80.0772 85.8275 80.0772C85.2932 80.0772 84.8072 80.1592 84.37 80.335C83.9205 80.5108 83.5441 80.7687 83.2282 81.0969C82.9125 81.4367 82.6695 81.8469 82.4994 82.3275C82.3172 82.8197 82.2322 83.3823 82.2322 84.0034C82.2322 84.6246 82.3172 85.1872 82.4994 85.6794C82.6695 86.1716 82.9125 86.5936 83.2282 86.9335C83.5441 87.2733 83.9205 87.5429 84.37 87.7187C84.8072 87.9062 85.2932 88 85.8275 88C86.362 88 86.8478 87.9062 87.2973 87.7187ZM84.5401 85.8318C84.2242 85.3864 84.0663 84.777 84.0663 84.0034C84.0663 83.2416 84.2242 82.6439 84.5401 82.2103C84.8558 81.7766 85.2809 81.5657 85.8275 81.5657C86.3741 81.5657 86.7992 81.7766 87.1151 82.2103C87.4308 82.6439 87.5889 83.2416 87.5889 84.0034C87.5889 84.777 87.4308 85.3864 87.1151 85.8318C86.7992 86.2889 86.3741 86.5115 85.8275 86.5115C85.2809 86.5115 84.8558 86.2889 84.5401 85.8318ZM96.3706 87.121C96.893 86.535 97.1602 85.5974 97.1602 84.3199V80.2178H95.4353V84.4957C95.4353 85.2458 95.3139 85.7732 95.0709 86.0662C94.828 86.3592 94.488 86.5115 94.0385 86.5115C93.5891 86.5115 93.249 86.3592 93.0182 86.0662C92.7875 85.7732 92.666 85.2458 92.666 84.4957V80.2178H90.8683V84.3199C90.8683 85.5974 91.1355 86.535 91.6821 87.121C92.2287 87.707 93.0061 88 94.0385 88C95.0589 88 95.8363 87.707 96.3706 87.121ZM100.78 87.8593V85.1051H101.764L103.282 87.8593H105.286L103.488 84.8004C103.913 84.6246 104.266 84.3433 104.521 83.98C104.776 83.6167 104.897 83.1596 104.897 82.597C104.897 82.1399 104.812 81.7649 104.654 81.4602C104.497 81.1555 104.278 80.9093 103.998 80.7218C103.719 80.546 103.403 80.4171 103.039 80.335C102.662 80.253 102.274 80.2178 101.849 80.2178H98.9941V87.8593H100.78ZM100.78 81.5891H101.703C102.177 81.5891 102.529 81.6594 102.784 81.8118C103.027 81.9641 103.148 82.222 103.148 82.597C103.148 82.9721 103.027 83.2533 102.784 83.4409C102.529 83.6401 102.177 83.7339 101.703 83.7339H100.78V81.5891ZM109.95 87.8007C110.327 87.6718 110.643 87.5077 110.898 87.2851C111.153 87.0741 111.347 86.828 111.481 86.535C111.614 86.2537 111.675 85.949 111.675 85.6325C111.675 85.0934 111.541 84.6598 111.262 84.3316C110.983 84.0034 110.594 83.7456 110.108 83.5581L109.088 83.1596C108.918 83.0893 108.76 83.0189 108.614 82.9603C108.468 82.9017 108.347 82.8431 108.238 82.7728C108.128 82.7142 108.043 82.6322 107.982 82.5502C107.922 82.4681 107.885 82.3743 107.885 82.2571C107.885 82.0345 107.982 81.8704 108.165 81.7415C108.347 81.6243 108.59 81.5657 108.893 81.5657C109.209 81.5657 109.501 81.6125 109.756 81.718C110.011 81.8235 110.278 81.9759 110.533 82.1751L111.444 81.0851C111.104 80.757 110.716 80.5108 110.266 80.335C109.817 80.1592 109.355 80.0772 108.893 80.0772C108.481 80.0772 108.104 80.1358 107.764 80.253C107.412 80.3702 107.12 80.5343 106.865 80.7335C106.61 80.9445 106.416 81.1906 106.282 81.4602C106.148 81.7415 106.076 82.0345 106.076 82.3509C106.076 82.6322 106.124 82.8783 106.209 83.101C106.294 83.3237 106.416 83.5229 106.574 83.687C106.719 83.8628 106.889 84.0034 107.084 84.1324C107.266 84.2613 107.46 84.355 107.667 84.4371L108.699 84.859C108.869 84.9293 109.027 84.9879 109.173 85.0465C109.306 85.1051 109.428 85.1754 109.537 85.234C109.634 85.3044 109.707 85.3864 109.768 85.4685C109.817 85.5505 109.841 85.656 109.841 85.7732C109.841 85.9959 109.756 86.1834 109.574 86.3123C109.392 86.4412 109.112 86.5115 108.736 86.5115C108.408 86.5115 108.068 86.4412 107.727 86.2889C107.375 86.1365 107.059 85.949 106.78 85.7146L105.76 86.8983C106.161 87.2616 106.622 87.5429 107.144 87.7187C107.655 87.9062 108.165 88 108.687 88C109.161 88 109.574 87.9297 109.95 87.8007ZM118.1 87.8593V86.4061H114.809V84.648H117.505V83.2065H114.809V81.6711H117.979V80.2178H113.023V87.8593H118.1ZM124.599 87.8593V86.4061H121.465V80.2178H119.679V87.8593H124.599ZM127.757 87.8593V84.8942H130.502V83.4409H127.757V81.6711H130.963V80.2178H125.971V87.8593H127.757Z" fill="#4A3E30"/>
<path d="M4.70991 55.739C4.70991 57.0906 3.65542 58.1865 2.35495 58.1865C1.05432 58.1865 0 57.0906 0 55.739C0 54.3872 1.05432 53.2913 2.35495 53.2913C3.65542 53.2913 4.70991 54.3872 4.70991 55.739Z" fill="#4A3E30"/>
<path d="M150 55.739C150 57.0906 148.946 58.1865 147.646 58.1865C146.345 58.1865 145.291 57.0906 145.291 55.739C145.291 54.3872 146.345 53.2913 147.646 53.2913C148.946 53.2913 150 54.3872 150 55.739Z" fill="#4A3E30"/>
</svg>
